<svg xmlns="http://www.w3.org/2000/svg" width="42" height="48" viewBox="0 0 42 48" fill="none"><path d="M32.971 5.44943L34.3767 0H34.9019L36.3076 5.44943L41.8158 6.87034V7.36518L36.3076 8.78609L34.9019 14.2356H34.3767L32.971 8.78609L27.5802 7.3955V6.84002L32.971 5.44943Z" fill="#F9FAFB"></path><path fill-rule="evenodd" clip-rule="evenodd" d="M15.5329 10.3262C24.1115 10.3262 31.0659 15.5035 31.0659 25.559C31.0659 35.0753 24.9215 40.1603 17.0593 40.7367C20.7991 43.0216 26.4456 43.0244 29.9583 40.0417L31.0548 40.6364L29.8247 46.7831L29.3709 47.3545C23.1349 49.1893 17.4775 47.1561 13.5295 40.6963C5.89726 39.9542 0 34.8963 0 25.559C0 15.5008 6.95434 10.3262 15.5329 10.3262ZM15.5336 38.0867C21.0451 38.0867 23.6929 32.4779 23.6929 25.559C23.6929 18.6402 21.3985 13.0314 15.5336 13.0314C9.83372 13.0314 7.37427 18.6402 7.37427 25.559C7.37427 32.4779 9.73738 38.0867 15.5336 38.0867Z" fill="#F9FAFB"></path></svg>