<?xml version="1.0" encoding="UTF-8" standalone="no"?>
<!-- Created with Inkscape (http://www.inkscape.org/) -->

<svg
   width="159.46452mm"
   height="26.855209mm"
   viewBox="0 0 159.46452 26.855209"
   version="1.1"
   id="svg185"
   xml:space="preserve"
   inkscape:version="1.2.2 (732a01da63, 2022-12-09)"
   sodipodi:docname="logos.svg"
   xmlns:inkscape="http://www.inkscape.org/namespaces/inkscape"
   xmlns:sodipodi="http://sodipodi.sourceforge.net/DTD/sodipodi-0.dtd"
   xmlns="http://www.w3.org/2000/svg"
   xmlns:svg="http://www.w3.org/2000/svg"><sodipodi:namedview
     id="namedview187"
     pagecolor="#ffffff"
     bordercolor="#000000"
     borderopacity="0.25"
     inkscape:showpageshadow="2"
     inkscape:pageopacity="0.0"
     inkscape:pagecheckerboard="0"
     inkscape:deskcolor="#d1d1d1"
     inkscape:document-units="mm"
     showgrid="false"
     inkscape:zoom="0.93806818"
     inkscape:cx="786.19019"
     inkscape:cy="1101.7323"
     inkscape:window-width="3840"
     inkscape:window-height="2081"
     inkscape:window-x="3831"
     inkscape:window-y="-9"
     inkscape:window-maximized="1"
     inkscape:current-layer="layer1" /><defs
     id="defs182" /><g
     inkscape:label="Layer 1"
     inkscape:groupmode="layer"
     id="layer1"
     transform="translate(-36.76122,-73.444181)"><g
       id="g578"
       transform="matrix(1.0913732,0,0,1.0913732,-7.0528702,-8.4380013)"><path
         d="m 51.223772,80.052595 c 0.56769,-0.61905 1.61809,-0.61905 2.18578,0 l 10.74854,11.72083 c 0.76702,0.83635 0.10901,2.10238 -1.093,2.10238 h -21.49694 c -1.2019,0 -1.85997,-1.26603 -1.09289,-2.10238 z"
         fill="#44be75"
         id="path306"
         style="stroke-width:0.264583" /><path
         opacity="0.7"
         d="m 63.923672,80.052595 c 0.56779,-0.61905 1.61819,-0.61905 2.18598,0 l 10.74844,11.72083 c 0.76702,0.83635 0.109,2.10238 -1.093,2.10238 h -21.49697 c -1.20187,0 -1.85994,-1.26603 -1.09286,-2.10238 z"
         fill="#44be75"
         id="path308"
         style="stroke-width:0.264583" /><circle
         cx="58.666668"
         cy="76.942474"
         r="1.5875"
         fill="#44be75"
         id="circle310"
         style="stroke-width:0.264583" /></g><g
       id="g736"
       transform="translate(-1.6923077,-66.846154)"
       inkscape:export-filename="logo_with_text_color"
       inkscape:export-xdpi="96"
       inkscape:export-ydpi="96"><path
         d="m 88.453378,160.3193 -1.693333,-1.11125 9.577917,-12.30313 1.481666,1.27 z m -0.873125,0.635 c -0.687916,0 -1.031875,-0.34396 -1.031875,-1.03188 0,-0.67026 0.343959,-1.00541 1.031875,-1.00541 h 9.551459 c 0.687916,0 1.031875,0.33515 1.031875,1.00541 0,0.68792 -0.343959,1.03188 -1.031875,1.03188 z m -0.15875,-12.43542 c -0.687916,0 -1.031875,-0.33514 -1.031875,-1.00541 0,-0.68792 0.343959,-1.03188 1.031875,-1.03188 h 9.577917 c 0.670269,0 1.005417,0.34396 1.005417,1.03188 0,0.67027 -0.335148,1.00541 -1.005417,1.00541 z m 19.430157,12.56771 c -1.44648,0 -2.72524,-0.30877 -3.83649,-0.92604 -1.11125,-0.635 -1.98437,-1.50813 -2.61937,-2.61938 -0.635003,-1.11125 -0.952503,-2.38125 -0.952503,-3.81 0,-1.44639 0.299879,-2.71639 0.899583,-3.81 0.59973,-1.11125 1.41994,-1.98437 2.46063,-2.61937 1.05833,-0.635 2.27541,-0.9525 3.65127,-0.9525 1.34065,0 2.50481,0.30869 3.4925,0.92604 1.00542,0.59973 1.77271,1.43756 2.30188,2.51354 0.54689,1.07598 0.8202,2.30188 0.8202,3.67771 0,0.29985 -0.0971,0.54682 -0.29104,0.74083 -0.19394,0.1764 -0.44106,0.26459 -0.74083,0.26459 h -11.05961 v -1.82563 h 11.1919 l -1.13771,0.79375 c 0.0177,-0.97014 -0.15875,-1.84327 -0.52916,-2.61937 -0.37042,-0.7761 -0.89959,-1.38465 -1.5875,-1.82563 -0.68792,-0.44098 -1.50813,-0.66146 -2.46063,-0.66146 -1.00542,0 -1.88738,0.22932 -2.64586,0.68792 -0.74083,0.4586 -1.31408,1.10244 -1.71979,1.93146 -0.38804,0.8114 -0.58208,1.73744 -0.58208,2.77812 0,1.04069 0.22931,1.96673 0.68791,2.77813 0.45863,0.8114 1.0848,1.4464 1.87855,1.905 0.81139,0.4586 1.73754,0.68792 2.77815,0.68792 0.59981,0 1.20835,-0.10584 1.82562,-0.3175 0.635,-0.21167 1.13771,-0.47625 1.50813,-0.79375 0.21166,-0.15875 0.44979,-0.23813 0.71437,-0.23813 0.28231,-0.0177 0.51144,0.0529 0.68792,0.21167 0.26458,0.22931 0.39687,0.47625 0.39687,0.74083 0.0177,0.26458 -0.0971,0.4939 -0.34396,0.68792 -0.58208,0.4939 -1.32291,0.89958 -2.2225,1.21708 -0.89958,0.3175 -1.75498,0.47625 -2.56645,0.47625 z m 10.24493,-0.13229 c -0.33523,0 -0.60854,-0.0971 -0.82021,-0.29104 -0.21167,-0.21167 -0.3175,-0.4939 -0.3175,-0.84667 V 147.6193 c 0,-0.35277 0.10583,-0.62619 0.3175,-0.82021 0.21167,-0.21167 0.48498,-0.3175 0.82021,-0.3175 0.33522,0 0.59981,0.10583 0.79375,0.3175 0.21166,0.19402 0.3175,0.46744 0.3175,0.82021 v 12.19729 c 0,0.35277 -0.10584,0.635 -0.3175,0.84667 -0.19394,0.19394 -0.45853,0.29104 -0.79375,0.29104 z m -0.0265,-17.09208 c -0.42333,0 -0.78502,-0.14994 -1.08479,-0.4498 -0.29978,-0.3175 -0.44979,-0.68791 -0.44979,-1.11125 0,-0.44098 0.15001,-0.80256 0.44979,-1.08479 0.3175,-0.28223 0.67918,-0.42333 1.08479,-0.42333 0.40561,0 0.75856,0.1411 1.05833,0.42333 0.3175,0.28223 0.47625,0.64381 0.47625,1.08479 0,0.42334 -0.15002,0.79375 -0.44979,1.11125 -0.29977,0.29986 -0.66146,0.4498 -1.08479,0.4498 z m 10.87358,17.09208 c -0.91731,0 -1.73752,-0.2204 -2.46062,-0.66146 -0.72311,-0.44098 -1.29646,-1.04952 -1.7198,-1.82562 -0.4056,-0.77611 -0.60854,-1.64923 -0.60854,-2.61938 v -12.85875 c 0,-0.3175 0.0971,-0.58208 0.29104,-0.79375 0.21167,-0.21167 0.48499,-0.3175 0.82021,-0.3175 0.3175,0 0.58209,0.10583 0.79375,0.3175 0.21167,0.21167 0.3175,0.47625 0.3175,0.79375 v 12.85875 c 0,0.82902 0.23813,1.51694 0.71438,2.06375 0.49397,0.54682 1.11125,0.82021 1.85208,0.82021 h 0.79375 c 0.28231,0 0.52044,0.10583 0.71438,0.3175 0.19393,0.21167 0.29104,0.47625 0.29104,0.79375 0,0.33515 -0.12356,0.60854 -0.37042,0.82021 -0.22939,0.19394 -0.52917,0.29104 -0.89958,0.29104 z m -6.35,-12.01208 c -0.29977,0 -0.54689,-0.0882 -0.74083,-0.26459 -0.19394,-0.19402 -0.29104,-0.42333 -0.29104,-0.68791 0,-0.28223 0.0971,-0.51152 0.29104,-0.68792 0.19394,-0.19402 0.44106,-0.29104 0.74083,-0.29104 h 6.53521 c 0.29977,0 0.54689,0.097 0.74083,0.29104 0.19394,0.1764 0.29104,0.40569 0.29104,0.68792 0,0.26458 -0.0971,0.49389 -0.29104,0.68791 -0.19394,0.1764 -0.44106,0.26459 -0.74083,0.26459 z"
         fill="#44be75"
         id="path580"
         style="stroke-width:0.264583" /><path
         d="m 134.06458,155.98013 -1.34937,-1.48166 8.7577,-7.91105 c 0.2294,-0.21166 0.46752,-0.30868 0.71438,-0.29104 0.26458,0.0177 0.50271,0.14111 0.71437,0.37042 0.21167,0.22931 0.30877,0.47625 0.29105,0.74083 -0.0175,0.24694 -0.14103,0.47625 -0.37042,0.68792 z m -0.84667,4.97417 c -0.3175,0 -0.58208,-0.0971 -0.79375,-0.29104 -0.19394,-0.21167 -0.29104,-0.47625 -0.29104,-0.79375 v -18.49438 c 0,-0.3175 0.0971,-0.57327 0.29104,-0.76729 0.21167,-0.21167 0.47625,-0.3175 0.79375,-0.3175 0.33523,0 0.59981,0.10583 0.79375,0.3175 0.21167,0.19402 0.3175,0.44979 0.3175,0.76729 v 18.49438 c 0,0.3175 -0.10583,0.58208 -0.3175,0.79375 -0.19394,0.19394 -0.45852,0.29104 -0.79375,0.29104 z m 9.68375,-0.13229 c -0.24685,0.21166 -0.51144,0.29977 -0.79375,0.26458 -0.26458,-0.0177 -0.49371,-0.15002 -0.68791,-0.39687 l -5.74146,-7.06438 1.56104,-1.42875 5.82083,7.17021 c 0.19421,0.22931 0.28231,0.47625 0.26459,0.74083 -0.0175,0.26459 -0.15875,0.50271 -0.42334,0.71438 z m 8.3738,0.26458 c -1.34064,0 -2.54,-0.3175 -3.59833,-0.9525 -1.05833,-0.65265 -1.89627,-1.53458 -2.51354,-2.64583 -0.61754,-1.11125 -0.92604,-2.3636 -0.92604,-3.75709 0,-1.4111 0.3175,-2.67229 0.9525,-3.78354 0.65246,-1.11125 1.53458,-1.98437 2.64583,-2.61937 1.11125,-0.65265 2.36352,-0.97896 3.75708,-0.97896 1.37584,0 2.61038,0.32631 3.70417,0.97896 1.11125,0.635 1.98437,1.50812 2.61937,2.61937 0.65247,1.11125 0.98769,2.37244 1.00542,3.78354 l -0.89958,0.4498 c 0,1.30527 -0.30004,2.47827 -0.89959,3.51895 -0.58208,1.04069 -1.38483,1.86974 -2.4077,2.48709 -1.00542,0.59981 -2.15213,0.89958 -3.43959,0.89958 z m 0.3175,-2.01083 c 0.98769,0 1.86082,-0.22932 2.61938,-0.68792 0.77602,-0.47625 1.38456,-1.12006 1.82562,-1.93146 0.45853,-0.81139 0.68792,-1.71979 0.68792,-2.72521 0,-1.02306 -0.22939,-1.93145 -0.68792,-2.7252 -0.44106,-0.8114 -1.0496,-1.45521 -1.82562,-1.93146 -0.75856,-0.47625 -1.63169,-0.71438 -2.61938,-0.71438 -0.97022,0 -1.85208,0.23813 -2.64583,0.71438 -0.77629,0.47625 -1.39356,1.12006 -1.85208,1.93146 -0.45879,0.79375 -0.68792,1.70214 -0.68792,2.7252 0,1.00542 0.22913,1.91382 0.68792,2.72521 0.45852,0.8114 1.07579,1.45521 1.85208,1.93146 0.79375,0.4586 1.67561,0.68792 2.64583,0.68792 z m 6.19125,1.87854 c -0.3175,0 -0.59108,-0.0971 -0.82021,-0.29104 -0.21166,-0.21167 -0.3175,-0.48506 -0.3175,-0.82021 v -4.36563 l 0.50271,-2.30187 1.77271,0.55562 v 6.11188 c 0,0.33515 -0.10583,0.60854 -0.3175,0.82021 -0.21167,0.19394 -0.48525,0.29104 -0.82021,0.29104 z m 5.31231,6.19125 c -0.35296,0 -0.635,-0.10583 -0.84667,-0.3175 -0.1942,-0.19394 -0.29104,-0.46752 -0.29104,-0.82021 V 153.6518 c 0.0175,-1.37583 0.34396,-2.61056 0.97896,-3.70417 0.65246,-1.11125 1.52558,-1.98437 2.61937,-2.61937 1.09352,-0.65265 2.32833,-0.97896 3.70417,-0.97896 1.41102,0 2.66329,0.32631 3.75708,0.97896 1.11125,0.635 1.98438,1.50812 2.61938,2.61937 0.65272,1.11125 0.97895,2.37244 0.97895,3.78354 0,1.39349 -0.30876,2.64584 -0.92604,3.75709 -0.59981,1.11125 -1.42875,1.99318 -2.48708,2.64583 -1.05833,0.635 -2.25795,0.9525 -3.59833,0.9525 -1.14671,0 -2.18731,-0.23812 -3.12209,-0.71437 -0.93503,-0.4939 -1.69333,-1.13771 -2.27541,-1.93146 v 7.56708 c 0,0.35269 -0.10584,0.62627 -0.3175,0.82021 -0.21167,0.21167 -0.47625,0.3175 -0.79375,0.3175 z m 6.16479,-8.06979 c 0.98769,0 1.86954,-0.22932 2.64583,-0.68792 0.79375,-0.47625 1.41102,-1.12006 1.85208,-1.93146 0.45853,-0.81139 0.68792,-1.71979 0.68792,-2.72521 0,-1.02306 -0.22939,-1.93145 -0.68792,-2.7252 -0.44106,-0.8114 -1.05833,-1.45521 -1.85208,-1.93146 -0.77629,-0.47625 -1.65814,-0.71438 -2.64583,-0.71438 -0.9525,0 -1.82563,0.23813 -2.61938,0.71438 -0.77628,0.47625 -1.38483,1.12006 -1.82562,1.93146 -0.44106,0.79375 -0.66146,1.70214 -0.66146,2.7252 0,1.00542 0.2204,1.91382 0.66146,2.72521 0.44079,0.8114 1.04934,1.45521 1.82562,1.93146 0.77603,0.4586 1.64915,0.68792 2.61938,0.68792 z m 15.55882,2.01083 c -1.09352,0 -2.16059,-0.17648 -3.20146,-0.52917 -1.02288,-0.37041 -1.84309,-0.89077 -2.46062,-1.56104 -0.21167,-0.22931 -0.29978,-0.49389 -0.26459,-0.79375 0.0355,-0.29985 0.17648,-0.54681 0.42334,-0.74083 0.28231,-0.21167 0.56462,-0.29985 0.84666,-0.26458 0.30004,0.0353 0.5469,0.15875 0.74084,0.37041 0.38814,0.45861 0.92604,0.82902 1.61396,1.11125 0.68791,0.26459 1.44647,0.39688 2.27541,0.39688 1.21709,0 2.10794,-0.20286 2.67229,-0.60854 0.58209,-0.42334 0.88212,-0.94369 0.89959,-1.56105 0,-0.59973 -0.29104,-1.10243 -0.87313,-1.50812 -0.56435,-0.40569 -1.53458,-0.72319 -2.91041,-0.9525 -1.78144,-0.29985 -3.08663,-0.80256 -3.91584,-1.50813 -0.81121,-0.70556 -1.21708,-1.55223 -1.21708,-2.54 0,-0.89958 0.24712,-1.64922 0.74083,-2.24895 0.49398,-0.59973 1.13771,-1.04953 1.93146,-1.34938 0.81148,-0.29985 1.6846,-0.44979 2.61938,-0.44979 1.18189,0 2.20503,0.20286 3.06916,0.60854 0.8644,0.38807 1.56104,0.91723 2.09021,1.5875 0.1942,0.24694 0.27358,0.51152 0.23813,0.79375 -0.0175,0.26458 -0.15875,0.47625 -0.42334,0.635 -0.22913,0.15875 -0.50271,0.21167 -0.82021,0.15875 -0.29977,-0.0529 -0.55562,-0.19402 -0.76729,-0.42333 -0.44079,-0.47625 -0.9435,-0.82021 -1.50812,-1.03188 -0.56436,-0.22931 -1.20809,-0.34396 -1.93146,-0.34396 -0.91705,0 -1.65788,0.18521 -2.2225,0.55563 -0.56436,0.35277 -0.84667,0.8114 -0.84667,1.37583 0,0.38807 0.0971,0.72319 0.29104,1.00542 0.21167,0.28223 0.57336,0.53798 1.0848,0.76729 0.52916,0.21167 1.27899,0.40569 2.24895,0.58208 1.32292,0.22932 2.36379,0.55563 3.12209,0.97896 0.77628,0.40569 1.32291,0.88194 1.64041,1.42875 0.33523,0.54682 0.50271,1.15536 0.50271,1.82563 0,0.82902 -0.23812,1.56104 -0.71437,2.19604 -0.45853,0.61735 -1.11125,1.11125 -1.95792,1.48167 -0.84667,0.37041 -1.85208,0.55562 -3.01625,0.55562 z m 11.48398,-0.13229 c -0.74084,0 -1.3933,-0.19394 -1.95792,-0.58208 -0.56436,-0.40569 -1.00542,-0.96131 -1.32292,-1.66688 -0.3175,-0.70556 -0.47625,-1.51693 -0.47625,-2.43417 v -14.86958 c 0,-0.33515 0.0971,-0.59973 0.29104,-0.79375 0.21167,-0.21167 0.48525,-0.3175 0.82021,-0.3175 0.3175,0 0.57335,0.10583 0.76729,0.3175 0.21167,0.19402 0.3175,0.4586 0.3175,0.79375 v 14.86958 c 0,0.72319 0.14129,1.32292 0.42334,1.79917 0.30003,0.4586 0.67918,0.68792 1.13771,0.68792 h 0.66145 c 0.28231,0 0.51171,0.10583 0.68792,0.3175 0.17648,0.19402 0.26458,0.44979 0.26458,0.76729 0,0.33515 -0.13229,0.60854 -0.39687,0.82021 -0.24686,0.19394 -0.57309,0.29104 -0.97896,0.29104 z"
         fill="#44be75"
         fill-opacity="0.7"
         id="path582"
         style="stroke-width:0.264583" /></g></g></svg>
